<!DOCTYPE svg PUBLIC "-//W3C//DTD SVG 1.1//EN" "http://www.w3.org/Graphics/SVG/1.1/DTD/svg11.dtd">
<!-- Uploaded to: SVG Repo, www.svgrepo.com, Transformed by: SVG Repo Mixer Tools -->
<svg height="800px" width="800px" version="1.1" id="Layer_1" xmlns="http://www.w3.org/2000/svg" xmlns:xlink="http://www.w3.org/1999/xlink" viewBox="0 0 512 512" xml:space="preserve" fill="#000000" stroke="#000000" stroke-width="0.00512">
<g id="SVGRepo_bgCarrier" stroke-width="0"/>
<g id="SVGRepo_tracerCarrier" stroke-linecap="round" stroke-linejoin="round"/>
<g id="SVGRepo_iconCarrier"> <path style="fill:#b5c1de;" d="M461.228,50.772c-14.322,0-26.923,7.105-34.682,17.916c-2.619-0.501-5.308-0.813-8.073-0.813 c-12.772,0-24.106,5.713-31.941,14.593c-5.509-3.797-12.169-6.041-19.366-6.041c-18.891,0-34.205,15.314-34.205,34.205 s15.314,34.205,34.205,34.205c7.197,0,13.856-2.246,19.366-6.041c7.835,8.879,19.168,14.593,31.941,14.593 c14.322,0,26.923-7.105,34.682-17.916c2.619,0.501,5.308,0.813,8.073,0.813c23.613,0,42.756-19.143,42.756-42.756 S484.84,50.772,461.228,50.772z"/> <path style="fill:#cfd6e8;" d="M426.742,231.324h-153.64v272.66h213.779c-51.648-89.622-52.366-227.577-51.591-263.736 C435.396,235.316,431.538,231.324,426.742,231.324z"/> <g> <path style="fill:#b5c1de;" d="M426.742,231.324h-153.64v35.182h162.166c-0.19-11.143-0.109-20.17,0.021-26.258 C435.396,235.316,431.538,231.324,426.742,231.324z"/> <path style="fill:#b5c1de;" d="M355.678,231.324h-82.575v272.66l51.307-0.002c26.856-89.622,27.23-227.577,26.827-263.736 C351.182,235.317,353.186,231.328,355.678,231.324z"/> </g> <path style="fill:#3660c4;" d="M351.236,240.246c-0.055-4.929,1.95-8.918,4.441-8.922h-82.575v35.182h78.146 C351.347,255.362,351.305,246.334,351.236,240.246z"/> <path style="fill:#cfd6e8;" d="M25.119,503.983c52.365-108.293,65.464-262.706,67.923-299.669c0.307-4.606,4.041-8.173,8.53-8.173 h172.037c4.488,0,8.223,3.567,8.53,8.173c2.458,36.961,15.558,191.376,67.923,299.669H25.119z"/> <path style="fill:#b5c1de;" d="M127.733,503.982c32.351-108.293,40.444-262.706,41.963-299.669c0.189-4.604,2.495-8.168,5.266-8.172 h-73.39c-4.488,0-8.223,3.567-8.53,8.173c-2.458,36.962-15.558,191.376-67.923,299.669h324.944c0-0.001,0-0.001,0-0.001H127.733z"/> <g> <path style="fill:#f0c024;" d="M174.717,345.095l-21.566-36.971c-20.296,11.867-33.969,33.832-33.969,59.039h42.756 C161.937,357.713,167.107,349.546,174.717,345.095z"/> <path style="fill:#f0c024;" d="M200.465,345.095l21.566-36.971C242.327,319.991,256,341.956,256,367.164h-42.756 C213.244,357.713,208.075,349.546,200.465,345.095z"/> <path style="fill:#f0c024;" d="M187.591,435.574c12.875,0,24.875-3.622,35.16-9.808l-22.01-36.682 c-3.857,2.321-8.322,3.735-13.151,3.735s-9.294-1.414-13.151-3.735l-22.01,36.682C162.716,431.952,174.716,435.574,187.591,435.574 z"/> </g> <path style="fill:#b5c1de;" d="M284.345,231.324c-1.103-11.668-1.802-20.944-2.205-27.009c-0.307-4.606-4.041-8.173-8.53-8.173 H101.572c-4.488,0-8.223,3.567-8.53,8.173c-0.403,6.065-1.102,15.342-2.205,27.009H284.345z"/> <path style="fill:#3660c4;" d="M92.636,210.07c-0.12,1.634-0.255,3.398-0.405,5.289c-0.015,0.189-0.029,0.363-0.044,0.555 c-0.358,4.488-0.803,9.641-1.349,15.41h77.496c0.681-11.668,1.113-20.945,1.362-27.01c0.189-4.604,2.495-8.168,5.266-8.172h-73.39 c-4.488,0-8.223,3.567-8.53,8.173c-0.093,1.395-0.206,3.01-0.331,4.73C92.687,209.378,92.66,209.724,92.636,210.07z"/> <path style="fill:#8f6a19;" d="M119.182,367.165h35.54c2.27-15.834,4.208-31.382,5.87-46.283l-7.442-12.756 C132.855,319.991,119.182,341.957,119.182,367.165z"/> <path style="fill:#cfd6e8;" d="M434.958,61.285c-2.146-11.506-10.534-21.192-21.48-25.335c-6.595-2.496-12.805-2.646-18.539-1.474 c-8.753-15.773-25.559-26.459-44.876-26.459c-15.177,0-28.771,6.628-38.166,17.102h-30.243c-51.949,0-94.063,42.113-94.063,94.063 v42.756c0-46.157,33.271-84.471,77.123-92.459c0.855,18.13,15.701,32.601,34.042,32.601c6.219,0,11.971-1.786,16.994-4.688 c9.094,8.203,21.1,13.239,34.313,13.239c13.213,0,25.217-5.037,34.313-13.239c5.025,2.901,10.776,4.688,16.994,4.688 C422.416,102.079,439.022,83.07,434.958,61.285z"/> <path d="M503.983,495.967h-12.398c-39.624-72.296-47.184-175.651-48.233-229.505c0.151-0.614,0.238-1.251,0.238-1.91 c0-0.757-0.112-1.485-0.308-2.178c-0.273-19.219,0.276-31.182,0.297-31.623c0.11-2.193-0.684-4.337-2.198-5.927 c-1.514-1.592-3.613-2.493-5.809-2.493H291.609c-1.439-16.331-1.928-26.144-1.948-26.561c-0.2-4.278-3.725-7.644-8.008-7.644H93.528 c-4.283,0-7.809,3.366-8.008,7.645c-0.083,1.801-8.93,179.325-65.469,300.197H8.017c-4.427,0-8.017,3.589-8.017,8.017 C0,508.411,3.589,512,8.017,512h495.967c4.427,0,8.017-3.589,8.017-8.017C512,499.556,508.411,495.967,503.983,495.967z M355.13,495.967c-32.997-70.544-49.753-160.44-57.999-223.399H427.38c0.406,15.763,1.37,35.018,3.422,56.276 c6.572,68.092,20.91,124.218,42.657,167.123H355.13z M427.285,238.363c-0.106,4.489-0.19,10.653-0.154,18.171H295.138 c-0.761-6.467-1.424-12.545-2-18.171H427.285z M274.101,204.159c0.29,4.389,0.738,10.551,1.392,18.171H99.69 c0.654-7.62,1.101-13.782,1.392-18.171H274.101z M89.691,304.881c3.981-25.444,6.693-48.368,8.507-66.517h178.785 c1.815,18.149,4.527,41.074,8.507,66.517c14.462,92.437,35.368,153.686,52.021,191.086H37.67 C54.323,458.566,75.229,397.317,89.691,304.881z"/> <path d="M179.531,367.165c0,4.427,3.632,8.059,8.059,8.059s8.059-3.632,8.059-8.059c0-4.427-3.632-8.059-8.059-8.059 S179.531,362.738,179.531,367.165z"/> <path d="M169.954,367.165c0-6.259,3.293-11.922,8.81-15.149c3.819-2.233,5.107-7.138,2.877-10.959l-21.566-36.971 c-1.072-1.837-2.83-3.174-4.888-3.714c-2.057-0.54-4.246-0.242-6.083,0.833c-23.401,13.683-37.939,38.958-37.939,65.961 c0,4.427,3.589,8.017,8.017,8.017h42.756C166.365,375.182,169.954,371.592,169.954,367.165z M127.741,359.148 c2.12-15.591,10.344-29.87,22.798-39.589l13.701,23.489c-4.557,4.401-7.799,9.997-9.329,16.101h-27.17V359.148z"/> <path d="M226.077,301.205c-1.837-1.074-4.025-1.374-6.083-0.833c-2.058,0.541-3.816,1.877-4.888,3.714l-21.566,36.971 c-2.229,3.821-0.941,8.726,2.877,10.959c5.517,3.227,8.81,8.889,8.81,15.149c0,4.427,3.589,8.017,8.017,8.017H256 c4.427,0,8.017-3.589,8.017-8.017C264.017,340.161,249.479,314.886,226.077,301.205z M220.269,359.148 c-1.53-6.103-4.773-11.699-9.329-16.101l13.701-23.489c12.455,9.718,20.679,23.998,22.798,39.589h-27.17V359.148z"/> <path d="M207.617,384.959c-1.095-1.825-2.87-3.139-4.934-3.653c-2.063-0.514-4.249-0.188-6.072,0.909 c-5.709,3.434-12.33,3.434-18.039,0c-1.824-1.097-4.008-1.423-6.072-0.909c-2.065,0.514-3.839,1.829-4.934,3.653l-22.01,36.682 c-2.277,3.795-1.049,8.715,2.743,10.995c11.917,7.167,25.505,10.955,39.293,10.955s27.375-3.788,39.293-10.954 c3.791-2.28,5.02-7.2,2.743-10.995L207.617,384.959z M187.591,427.557c-8.216,0-16.347-1.709-23.894-4.986l13.972-23.286 c6.452,2.045,13.394,2.045,19.846,0l13.972,23.286C203.937,425.848,195.806,427.557,187.591,427.557z"/> <path d="M187.591,169.954c4.427,0,8.017-3.589,8.017-8.017c0-38.809,25.875-72.395,62.585-82.732 c4.947,17.913,21.27,30.891,40.563,30.891c5.471,0,10.802-1.085,15.913-3.23c3.25,2.427,6.72,4.499,10.351,6.201 c1.266,22.151,19.683,39.785,42.145,39.785c6.297,0,12.432-1.394,18.055-4.07c9.225,8.085,21.029,12.621,33.252,12.621 c14.576,0,28.476-6.402,38.079-17.339c1.585,0.158,3.137,0.236,4.676,0.236c27.995,0,50.772-22.777,50.772-50.772 s-22.777-50.772-50.772-50.772c-7.937,0-15.592,1.827-22.55,5.322c-4.742-8.848-12.652-15.95-22.362-19.625 c-5.622-2.127-11.415-2.998-17.294-2.604C388.023,9.778,369.732,0,350.063,0c-15.557,0-30.516,6.191-41.592,17.102h-26.817 c-56.287,0-102.079,45.792-102.079,102.079v42.756C179.574,166.365,183.163,169.954,187.591,169.954z M495.967,93.528 c0,19.156-15.584,34.739-34.739,34.739c-2.062,0-4.209-0.219-6.566-0.67c-3.068-0.587-6.199,0.661-8.021,3.199 c-6.549,9.125-17.079,14.573-28.169,14.573c-9.961,0-19.17-4.219-25.929-11.88c-2.684-3.043-7.218-3.598-10.56-1.298 c-4.392,3.027-9.516,4.626-14.818,4.626c-11.848,0-21.877-7.911-25.099-18.726c2.637,0.36,5.306,0.555,7.996,0.555 c12.8,0,25.175-4.149,35.394-11.781c5.11,2.146,10.442,3.23,15.913,3.23c12.594,0,24.436-5.56,32.49-15.256 c7.2-8.668,10.565-19.794,9.521-31.037c5.379-3.277,11.478-5.013,17.847-5.013C480.382,58.789,495.967,74.373,495.967,93.528z M281.653,33.136h30.243c2.278,0,4.448-0.968,5.968-2.664c8.23-9.176,19.966-14.439,32.198-14.439 c15.713,0,30.222,8.558,37.867,22.332c1.698,3.06,5.185,4.665,8.614,3.965c4.87-0.994,9.482-0.63,14.097,1.117 c8.519,3.224,14.817,10.623,16.437,19.307l0,0c1.489,7.981-0.482,15.737-5.551,21.839c-4.998,6.018-12.346,9.469-20.157,9.469 c-4.464,0-8.833-1.216-12.986-3.614c-3.01-1.738-6.797-1.338-9.377,0.989c-7.991,7.208-18.271,11.176-28.943,11.176 c-10.673,0-20.952-3.969-28.944-11.176c-2.58-2.328-6.368-2.728-9.378-0.989c-4.152,2.398-8.52,3.614-12.985,3.614 c-13.938,0-25.374-10.965-26.034-24.963c-0.109-2.309-1.209-4.458-3.019-5.897c-1.81-1.439-4.154-2.026-6.426-1.612 c-28.036,5.107-51.631,21.367-66.549,43.702C203.386,64.425,238.934,33.136,281.653,33.136z"/> </g>
</svg>